# xmcd
#
# Track frame offsets: 
#        150
#        18834
#        32217
#        54885
#        76417
#        93997
#        117382
#        137310
#        160871
#
# Disc length: 2337 seconds
#
# Revision: 0
# Processed by: cddbd v1.5.2PL0 Copyright (c) Steve Scherf et al.
# Submitted via: ExactAudioCopyFreeDBPlugin 1.0
#
DISCID=61091f09
DTITLE=Sophie Malbec - Road Of Blue Memories
DYEAR=2016
DGENRE=Blues
TTITLE0=Hideaway Man
TTITLE1=Grinnin' In Your Face
TTITLE2=Walk A Mile In My Shoes
TTITLE3=Raise A Helping Hand
TTITLE4=Road Of Blue Memories
TTITLE5=Don't Think Twice, It's All Right
TTITLE6=Say It To My Face
TTITLE7=West Memphis Blues
TTITLE8=If I Get Lucky
EXTD=
EXTT0=
EXTT1=
EXTT2=
EXTT3=
EXTT4=
EXTT5=
EXTT6=
EXTT7=
EXTT8=
PLAYORDER=
